<svg width="893" height="210" viewBox="0 0 893 210" fill="none" xmlns="http://www.w3.org/2000/svg">
<g filter="url(#filter0_d_489_1230)">
<path d="M764.045 81.0254V66.2241L792.826 58.4471L805.67 18.8096H823.747V55.9384H886.304V81.0254H823.747V142.489C823.747 154.363 826.126 162.726 830.883 167.576C835.799 172.259 843.728 174.6 854.669 174.6C861.646 174.6 867.831 173.847 873.222 172.342C878.614 170.67 883.767 168.328 888.683 165.318V192.161C884.56 194.335 878.693 196.426 871.081 198.433C863.628 200.44 855.938 201.443 848.009 201.443C834.848 201.443 824.223 199.185 816.136 194.67C808.049 189.987 802.102 183.631 798.297 175.603C794.649 167.408 792.826 158.043 792.826 147.506V81.0254H764.045Z" fill="#FB923C"/>
<path d="M720.38 54.9387L735.841 57.9491L751.302 54.9387V197.935H720.38V54.9387ZM735.841 37.1269C729.974 37.1269 725.137 35.4544 721.332 32.1095C717.526 28.5973 715.623 24.0816 715.623 18.5625C715.623 13.0433 717.526 8.61131 721.332 5.26638C725.137 1.75419 729.974 -0.00195312 735.841 -0.00195312C741.867 -0.00195312 746.703 1.75419 750.35 5.26638C754.156 8.61131 756.059 13.0433 756.059 18.5625C756.059 24.0816 754.156 28.5973 750.35 32.1095C746.703 35.4544 741.867 37.1269 735.841 37.1269Z" fill="#FB923C"/>
<path d="M538.613 4.7666H569.535V104.864L564.778 114.146V140.487L569.535 151.024V197.937H538.613V4.7666ZM557.166 126.94C560.179 111.888 565.174 98.843 572.151 87.8047C579.129 76.5991 587.692 67.9023 597.84 61.7142C608.147 55.5261 619.565 52.432 632.092 52.432C645.253 52.432 656.908 55.6096 667.057 61.965C677.206 68.1532 685.134 76.85 690.843 88.0556C696.552 99.0939 699.406 112.055 699.406 126.94C699.406 141.658 696.552 154.62 690.843 165.825C685.134 177.031 677.206 185.811 667.057 192.167C656.908 198.355 645.253 201.449 632.092 201.449C619.565 201.449 608.147 198.355 597.84 192.167C587.692 185.979 579.129 177.282 572.151 166.076C565.174 154.871 560.179 141.825 557.166 126.94ZM668.009 126.94C668.009 117.407 666.106 109.045 662.3 101.853C658.653 94.4946 653.578 88.8082 647.077 84.7943C640.575 80.6131 633.123 78.5225 624.718 78.5225C616.314 78.5225 608.385 80.6131 600.932 84.7943C593.638 88.8082 587.216 94.4946 581.666 101.853C576.116 109.045 571.596 117.407 568.108 126.94C571.596 136.474 576.116 144.919 581.666 152.278C587.216 159.47 593.638 165.156 600.932 169.338C608.385 173.351 616.314 175.358 624.718 175.358C633.123 175.358 640.575 173.351 647.077 169.338C653.578 165.156 658.653 159.47 662.3 152.278C666.106 144.919 668.009 136.474 668.009 126.94Z" fill="#FB923C"/>
<path d="M481.737 197.937L476.504 145.255L482.688 126.941L476.504 108.878L481.737 55.9448H513.61L506.474 126.941L513.61 197.937H481.737ZM491.251 126.941C488.239 141.826 483.243 154.871 476.266 166.077C469.289 177.282 460.647 185.979 450.34 192.167C440.191 198.355 428.853 201.45 416.326 201.45C403.164 201.45 391.509 198.355 381.361 192.167C371.212 185.812 363.283 177.032 357.575 165.826C351.866 154.62 349.012 141.659 349.012 126.941C349.012 112.056 351.866 99.0945 357.575 88.0562C363.283 76.8506 371.212 68.1538 381.361 61.9656C391.509 55.6103 403.164 52.4326 416.326 52.4326C428.853 52.4326 440.191 55.5267 450.34 61.7148C460.647 67.903 469.289 76.5997 476.266 87.8053C483.402 98.8436 488.397 111.889 491.251 126.941ZM380.409 126.941C380.409 136.474 382.233 144.92 385.88 152.279C389.686 159.471 394.839 165.157 401.341 169.338C407.842 173.352 415.295 175.359 423.699 175.359C432.262 175.359 440.191 173.352 447.485 169.338C454.78 165.157 461.202 159.471 466.752 152.279C472.461 144.92 476.98 136.474 480.31 126.941C476.98 117.408 472.461 109.046 466.752 101.854C461.202 94.4952 454.78 88.8088 447.485 84.7949C440.191 80.6137 432.262 78.5231 423.699 78.5231C415.295 78.5231 407.842 80.6137 401.341 84.7949C394.839 88.8088 389.686 94.4952 385.88 101.854C382.233 109.046 380.409 117.408 380.409 126.941Z" fill="#FB923C"/>
<path d="M185.762 4.7666H216.683V197.937H185.762V4.7666ZM270.202 52.432C282.887 52.432 293.67 55.1079 302.55 60.4598C311.431 65.8117 318.17 73.5051 322.768 83.5399C327.526 93.4075 329.904 105.366 329.904 119.414V197.937H298.983V124.683C298.983 109.798 295.653 98.5921 288.992 91.066C282.491 83.3727 272.897 79.5259 260.212 79.5259C251.49 79.5259 243.799 81.6166 237.139 85.7978C230.638 89.8117 225.563 95.498 221.916 102.857C218.428 110.216 216.683 118.829 216.683 128.697L205.742 122.425C207.169 107.707 210.816 95.1636 216.683 84.7943C222.551 74.425 230.083 66.4807 239.28 60.9615C248.477 55.2751 258.784 52.432 270.202 52.432Z" fill="#FB923C"/>
<path d="M4 4.7666H34.9217V104.864L30.1645 114.146V140.487L34.9217 151.024V197.937H4V4.7666ZM22.553 126.94C25.5659 111.888 30.5609 98.843 37.5381 87.8047C44.5153 76.5991 53.0782 67.9023 63.2269 61.7142C73.5341 55.5261 84.9513 52.432 97.4786 52.432C110.64 52.432 122.295 55.6096 132.444 61.965C142.592 68.1532 150.521 76.85 156.23 88.0556C161.938 99.0939 164.793 112.055 164.793 126.94C164.793 141.658 161.938 154.62 156.23 165.825C150.521 177.031 142.592 185.811 132.444 192.167C122.295 198.355 110.64 201.449 97.4786 201.449C84.9513 201.449 73.5341 198.355 63.2269 192.167C53.0782 185.979 44.5153 177.282 37.5381 166.076C30.5609 154.871 25.5659 141.825 22.553 126.94ZM133.395 126.94C133.395 117.407 131.492 109.045 127.687 101.853C124.039 94.4946 118.965 88.8082 112.464 84.7943C105.962 80.6131 98.5093 78.5225 90.1049 78.5225C81.7006 78.5225 73.772 80.6131 66.319 84.7943C59.0247 88.8082 52.6025 94.4946 47.0525 101.853C41.5024 109.045 36.9831 117.407 33.4945 126.94C36.9831 136.474 41.5024 144.919 47.0525 152.278C52.6025 159.47 59.0247 165.156 66.319 169.338C73.772 173.351 81.7006 175.358 90.1049 175.358C98.5093 175.358 105.962 173.351 112.464 169.338C118.965 165.156 124.039 159.47 127.687 152.278C131.492 144.919 133.395 136.474 133.395 126.94Z" fill="#FB923C"/>
</g>
<defs>
<filter id="filter0_d_489_1230" x="0" y="-0.00195312" width="892.684" height="209.451" filterUnits="userSpaceOnUse" color-interpolation-filters="sRGB">
<feFlood flood-opacity="0" result="BackgroundImageFix"/>
<feColorMatrix in="SourceAlpha" type="matrix" values="0 0 0 0 0 0 0 0 0 0 0 0 0 0 0 0 0 0 127 0" result="hardAlpha"/>
<feOffset dy="4"/>
<feGaussianBlur stdDeviation="2"/>
<feComposite in2="hardAlpha" operator="out"/>
<feColorMatrix type="matrix" values="0 0 0 0 0.545098 0 0 0 0 0.360784 0 0 0 0 0.964706 0 0 0 1 0"/>
<feBlend mode="normal" in2="BackgroundImageFix" result="effect1_dropShadow_489_1230"/>
<feBlend mode="normal" in="SourceGraphic" in2="effect1_dropShadow_489_1230" result="shape"/>
</filter>
</defs>
</svg>
