<svg width="1530" height="440" viewBox="0 0 1530 440" fill="none" xmlns="http://www.w3.org/2000/svg">
<g filter="url(#filter0_dn_470_1524)">
<g filter="url(#filter1_d_470_1524)">
<path d="M1333.41 125.935C1333.41 111.575 1345.05 99.9346 1359.41 99.9346H1374.7C1389.06 99.9346 1400.7 111.575 1400.7 125.935V367.455C1400.7 381.814 1389.06 393.455 1374.7 393.455H1359.41C1345.05 393.455 1333.41 381.814 1333.41 367.455V125.935ZM1253.11 80.2559C1253.11 65.8965 1264.75 54.2559 1279.11 54.2559H1455C1469.36 54.2559 1481 65.8965 1481 80.2559V121.875C1481 136.234 1469.36 147.875 1455 147.875H1279.11C1264.75 147.875 1253.11 136.234 1253.11 121.875V80.2559Z" fill="#FB923C"/>
</g>
<g filter="url(#filter2_d_470_1524)">
<path d="M1155.44 80.2558C1155.44 65.8964 1167.08 54.2559 1181.44 54.2559H1196.74C1211.1 54.2559 1222.74 65.8965 1222.74 80.2559V367.455C1222.74 381.814 1211.1 393.455 1196.74 393.455H1181.44C1167.08 393.455 1155.44 381.814 1155.44 367.455V80.2558Z" fill="#FB923C"/>
</g>
<g filter="url(#filter3_d_470_1524)">
<path d="M1055.83 225.052C1049.94 226.84 1044.93 221.172 1046.63 215.259C1047.71 211.54 1051.18 208.991 1055.04 209.373C1068.52 210.714 1080.01 214.636 1089.48 221.142C1100.45 228.378 1108.64 238.479 1114.03 251.443C1119.42 264.408 1122.12 279.635 1122.12 297.122C1122.12 315.514 1119.42 332.097 1114.03 346.871C1108.83 361.344 1100.84 372.801 1090.06 381.244C1079.27 389.384 1065.89 393.455 1049.91 393.455H913.557C898.23 393.455 886.23 380.265 887.672 365.007L901.208 221.847C901.366 220.175 901.362 218.491 901.195 216.819L887.833 82.8362C886.307 67.5327 898.325 54.2559 913.704 54.2559H1043.84C1063.87 54.2559 1079.46 61.6429 1090.63 76.4169C1101.99 90.8893 1107.67 111.091 1107.67 137.02C1107.67 151.493 1105.56 165.212 1101.32 178.177C1097.28 191.141 1090.44 202.147 1080.81 211.192C1074.1 217.416 1065.77 222.036 1055.83 225.052ZM954.35 334.023C953.295 344.805 938.904 347.683 933.784 338.135C929.869 330.834 935.158 321.997 943.442 321.997H1029.98C1037.49 321.997 1043.36 319.132 1047.6 313.404C1051.83 307.374 1053.95 299.082 1053.95 288.529C1053.95 278.579 1051.74 270.439 1047.31 264.107C1042.88 257.474 1036.43 254.157 1027.96 254.157H966.728C952.368 254.157 940.728 242.516 940.728 228.157V210.508C940.728 196.149 952.368 184.508 966.728 184.508H1018.42C1024.39 184.508 1029.4 181.644 1033.44 175.915C1037.49 170.187 1039.51 162.649 1039.51 153.302C1039.51 145.463 1037.68 138.98 1034.02 133.855C1030.56 128.427 1025.55 125.714 1019 125.714H943.654C935.383 125.714 930.087 116.911 933.961 109.604C939.037 100.03 953.444 102.829 954.566 113.607L965.296 216.722C965.476 218.458 965.482 220.208 965.312 221.944L954.35 334.023Z" fill="#FB923C"/>
</g>
<g filter="url(#filter4_d_470_1524)">
<path d="M675.765 332.399C661.405 332.399 649.765 320.758 649.765 306.399V274.278C649.765 259.918 661.405 248.278 675.765 248.278H772.226C786.585 248.278 798.226 259.918 798.226 274.278V306.399C798.226 320.758 786.585 332.399 772.226 332.399H675.765ZM750.027 54.2559C761.632 54.2559 771.832 61.9467 775.024 73.1039L857.195 360.303C861.948 376.914 849.476 393.455 832.198 393.455H814.716C802.946 393.455 792.644 385.547 789.6 374.177L718.548 108.719C717.362 104.287 720.702 99.9346 725.291 99.9346C729.882 99.9346 733.223 104.291 732.032 108.726L660.714 374.2C657.662 385.559 647.366 393.455 635.604 393.455H618.364C601.095 393.455 588.624 376.929 593.361 360.322L675.288 73.1236C678.473 61.9565 688.678 54.2559 700.29 54.2559H750.027Z" fill="#FB923C"/>
</g>
<g filter="url(#filter5_d_470_1524)">
<path d="M323.346 80.2558C323.346 65.8964 334.986 54.2559 349.346 54.2559H364.644C379.004 54.2559 390.644 65.8965 390.644 80.2559V268.5V277.5V367.455C390.644 381.814 379.004 393.455 364.644 393.455H349.346C334.986 393.455 323.346 381.814 323.346 367.455V80.2558ZM492.026 80.2559C492.026 65.8965 503.666 54.2559 518.026 54.2559H533.324C547.684 54.2559 559.324 65.8965 559.324 80.2559V367.455C559.324 381.814 547.684 393.455 533.324 393.455H518.026C503.666 393.455 492.026 381.814 492.026 367.455V267.273V248.5V80.2559ZM361.183 218C361.183 203.641 372.824 192 387.183 192H440.5H493.176C507.536 192 519.176 203.641 519.176 218V241.273C519.176 255.632 507.536 267.273 493.176 267.273H492.026L415 266.5C415 266.5 389.289 265.5 390.644 268.5C390.172 268.311 388.826 268.15 386.953 268.012C372.718 266.967 361.183 255.765 361.183 241.491V218Z" fill="#FB923C"/>
</g>
<g filter="url(#filter6_d_470_1524)">
<path d="M217.86 223.697C211.97 225.484 206.954 219.817 208.662 213.904C209.737 210.185 213.212 207.635 217.064 208.018C230.552 209.358 242.033 213.281 251.505 219.786C262.481 227.022 270.665 237.123 276.056 250.088C281.448 263.053 284.144 278.279 284.144 295.767C284.144 314.159 281.448 330.742 276.056 345.516C270.857 359.988 262.866 371.446 252.083 379.888C241.3 388.029 227.917 392.099 211.935 392.099H75.5841C60.2579 392.099 48.2568 378.91 49.6995 363.652L63.2356 220.492C63.3938 218.819 63.3894 217.136 63.2227 215.464L49.8602 81.4807C48.3339 66.1772 60.3524 52.9004 75.7318 52.9004H205.869C225.895 52.9004 241.492 60.2874 252.661 75.0614C264.021 89.5339 269.702 109.735 269.702 135.665C269.702 150.137 267.584 163.856 263.348 176.821C259.304 189.786 252.468 200.791 242.84 209.836C236.124 216.061 227.797 220.681 217.86 223.697ZM116.377 332.667C115.322 343.449 100.931 346.327 95.8115 336.78C91.8967 329.479 97.1856 320.641 105.47 320.641H192.005C199.515 320.641 205.388 317.777 209.624 312.048C213.86 306.018 215.979 297.727 215.979 287.174C215.979 277.224 213.764 269.083 209.335 262.751C204.906 256.118 198.456 252.802 189.983 252.802H140.207C126.725 252.802 118.66 267.812 126.058 279.083C129.343 284.088 129.735 290.47 127.076 295.834C118.858 312.414 93.7985 305.57 95.1487 287.115L100.992 207.256C101.986 193.669 113.299 183.153 126.922 183.153H180.452C186.421 183.153 191.427 180.288 195.471 174.56C199.515 168.831 201.537 161.293 201.537 151.946C201.537 144.107 199.707 137.625 196.049 132.499C192.583 127.072 187.576 124.358 181.029 124.358H129.227C126.591 124.358 124.088 125.514 122.379 127.52C120.816 129.354 120.055 131.738 120.265 134.138L127.385 215.578C127.525 217.174 127.516 218.779 127.36 220.374L116.377 332.667Z" fill="#FB923C"/>
</g>
</g>
<defs>
<filter id="filter0_dn_470_1524" x="0.582031" y="0.900391" width="1529.42" height="438.555" filterUnits="userSpaceOnUse" color-interpolation-filters="sRGB">
<feFlood flood-opacity="0" result="BackgroundImageFix"/>
<feColorMatrix in="SourceAlpha" type="matrix" values="0 0 0 0 0 0 0 0 0 0 0 0 0 0 0 0 0 0 127 0" result="hardAlpha"/>
<feOffset dy="-3"/>
<feGaussianBlur stdDeviation="24.5"/>
<feColorMatrix type="matrix" values="0 0 0 0 0.545098 0 0 0 0 0.360784 0 0 0 0 0.964706 0 0 0 1 0"/>
<feBlend mode="plus-lighter" in2="BackgroundImageFix" result="effect1_dropShadow_470_1524"/>
<feBlend mode="normal" in="SourceGraphic" in2="BackgroundImageFix" result="shape"/>
<feTurbulence type="fractalNoise" baseFrequency="0.58479529619216919 0.58479529619216919" stitchTiles="stitch" numOctaves="3" result="noise" seed="79" />
<feComponentTransfer in="noise" result="coloredNoise1">
<feFuncR type="linear" slope="2" intercept="-0.5" />
<feFuncG type="linear" slope="2" intercept="-0.5" />
<feFuncB type="linear" slope="2" intercept="-0.5" />
<feFuncA type="discrete" tableValues="1 1 1 1 1 1 1 1 1 1 1 1 1 1 1 1 1 1 1 1 1 1 1 1 1 1 1 1 1 1 1 1 1 1 1 1 1 1 1 1 1 1 1 1 1 1 1 1 1 1 1 0 0 0 0 0 0 0 0 0 0 0 0 0 0 0 0 0 0 0 0 0 0 0 0 0 0 0 0 0 0 0 0 0 0 0 0 0 0 0 0 0 0 0 0 0 0 0 0 0 "/>
</feComponentTransfer>
<feComposite operator="in" in2="shape" in="coloredNoise1" result="noise1Clipped" />
<feComponentTransfer in="noise1Clipped" result="color1">
<feFuncA type="table" tableValues="0 0.15" />
</feComponentTransfer>
<feMerge result="effect2_noise_470_1524">
<feMergeNode in="shape" />
<feMergeNode in="color1" />
</feMerge>
<feBlend mode="normal" in="effect2_noise_470_1524" in2="effect1_dropShadow_470_1524" result="effect2_noise_470_1524"/>
</filter>
<filter id="filter1_d_470_1524" x="1245.11" y="46.2559" width="243.891" height="355.199" filterUnits="userSpaceOnUse" color-interpolation-filters="sRGB">
<feFlood flood-opacity="0" result="BackgroundImageFix"/>
<feColorMatrix in="SourceAlpha" type="matrix" values="0 0 0 0 0 0 0 0 0 0 0 0 0 0 0 0 0 0 127 0" result="hardAlpha"/>
<feOffset/>
<feGaussianBlur stdDeviation="4"/>
<feComposite in2="hardAlpha" operator="out"/>
<feColorMatrix type="matrix" values="0 0 0 0 0.780392 0 0 0 0 0.0823529 0 0 0 0 0.521569 0 0 0 1 0"/>
<feBlend mode="normal" in2="BackgroundImageFix" result="effect1_dropShadow_470_1524"/>
<feBlend mode="normal" in="SourceGraphic" in2="effect1_dropShadow_470_1524" result="shape"/>
</filter>
<filter id="filter2_d_470_1524" x="1147.44" y="46.2559" width="83.2988" height="355.199" filterUnits="userSpaceOnUse" color-interpolation-filters="sRGB">
<feFlood flood-opacity="0" result="BackgroundImageFix"/>
<feColorMatrix in="SourceAlpha" type="matrix" values="0 0 0 0 0 0 0 0 0 0 0 0 0 0 0 0 0 0 127 0" result="hardAlpha"/>
<feOffset/>
<feGaussianBlur stdDeviation="4"/>
<feComposite in2="hardAlpha" operator="out"/>
<feColorMatrix type="matrix" values="0 0 0 0 0.780392 0 0 0 0 0.0823529 0 0 0 0 0.521569 0 0 0 1 0"/>
<feBlend mode="normal" in2="BackgroundImageFix" result="effect1_dropShadow_470_1524"/>
<feBlend mode="normal" in="SourceGraphic" in2="effect1_dropShadow_470_1524" result="shape"/>
</filter>
<filter id="filter3_d_470_1524" x="879.555" y="46.2559" width="250.562" height="355.199" filterUnits="userSpaceOnUse" color-interpolation-filters="sRGB">
<feFlood flood-opacity="0" result="BackgroundImageFix"/>
<feColorMatrix in="SourceAlpha" type="matrix" values="0 0 0 0 0 0 0 0 0 0 0 0 0 0 0 0 0 0 127 0" result="hardAlpha"/>
<feOffset/>
<feGaussianBlur stdDeviation="4"/>
<feComposite in2="hardAlpha" operator="out"/>
<feColorMatrix type="matrix" values="0 0 0 0 0.780392 0 0 0 0 0.0823529 0 0 0 0 0.521569 0 0 0 1 0"/>
<feBlend mode="normal" in2="BackgroundImageFix" result="effect1_dropShadow_470_1524"/>
<feBlend mode="normal" in="SourceGraphic" in2="effect1_dropShadow_470_1524" result="shape"/>
</filter>
<filter id="filter4_d_470_1524" x="584.348" y="46.2559" width="281.865" height="355.199" filterUnits="userSpaceOnUse" color-interpolation-filters="sRGB">
<feFlood flood-opacity="0" result="BackgroundImageFix"/>
<feColorMatrix in="SourceAlpha" type="matrix" values="0 0 0 0 0 0 0 0 0 0 0 0 0 0 0 0 0 0 127 0" result="hardAlpha"/>
<feOffset/>
<feGaussianBlur stdDeviation="4"/>
<feComposite in2="hardAlpha" operator="out"/>
<feColorMatrix type="matrix" values="0 0 0 0 0.780392 0 0 0 0 0.0823529 0 0 0 0 0.521569 0 0 0 1 0"/>
<feBlend mode="normal" in2="BackgroundImageFix" result="effect1_dropShadow_470_1524"/>
<feBlend mode="normal" in="SourceGraphic" in2="effect1_dropShadow_470_1524" result="shape"/>
</filter>
<filter id="filter5_d_470_1524" x="315.346" y="46.2559" width="251.979" height="355.199" filterUnits="userSpaceOnUse" color-interpolation-filters="sRGB">
<feFlood flood-opacity="0" result="BackgroundImageFix"/>
<feColorMatrix in="SourceAlpha" type="matrix" values="0 0 0 0 0 0 0 0 0 0 0 0 0 0 0 0 0 0 127 0" result="hardAlpha"/>
<feOffset/>
<feGaussianBlur stdDeviation="4"/>
<feComposite in2="hardAlpha" operator="out"/>
<feColorMatrix type="matrix" values="0 0 0 0 0.780392 0 0 0 0 0.0823529 0 0 0 0 0.521569 0 0 0 1 0"/>
<feBlend mode="normal" in2="BackgroundImageFix" result="effect1_dropShadow_470_1524"/>
<feBlend mode="normal" in="SourceGraphic" in2="effect1_dropShadow_470_1524" result="shape"/>
</filter>
<filter id="filter6_d_470_1524" x="41.582" y="44.9004" width="250.562" height="355.199" filterUnits="userSpaceOnUse" color-interpolation-filters="sRGB">
<feFlood flood-opacity="0" result="BackgroundImageFix"/>
<feColorMatrix in="SourceAlpha" type="matrix" values="0 0 0 0 0 0 0 0 0 0 0 0 0 0 0 0 0 0 127 0" result="hardAlpha"/>
<feOffset/>
<feGaussianBlur stdDeviation="4"/>
<feComposite in2="hardAlpha" operator="out"/>
<feColorMatrix type="matrix" values="0 0 0 0 0.780392 0 0 0 0 0.0823529 0 0 0 0 0.521569 0 0 0 1 0"/>
<feBlend mode="normal" in2="BackgroundImageFix" result="effect1_dropShadow_470_1524"/>
<feBlend mode="normal" in="SourceGraphic" in2="effect1_dropShadow_470_1524" result="shape"/>
</filter>
</defs>
</svg>
