<svg width="818" height="223" viewBox="0 0 818 223" fill="none" xmlns="http://www.w3.org/2000/svg">
<g filter="url(#filter0_n_485_1273)">
<g filter="url(#filter1_dg_485_1273)">
<mask id="path-2-inside-1_485_1273" fill="white">
<path d="M793.676 189.684C794.008 191.114 793.257 192.577 791.892 193.118C788.017 194.653 783.9 196.13 779.543 197.548C774.465 199.086 769.213 200.283 763.785 201.138C758.532 201.992 753.366 202.42 748.289 202.42C740.759 202.42 733.843 201.223 727.54 198.83C721.236 196.266 716.158 192.163 712.306 186.522C708.629 180.71 706.791 172.932 706.791 163.189V104.394C706.791 102.737 705.448 101.394 703.791 101.394H692.719C691.062 101.394 689.719 100.051 689.719 98.3937V67.7268C689.719 66.07 691.062 64.7268 692.719 64.7268H703.791C705.448 64.7268 706.791 63.3837 706.791 61.7268V25.4189C706.791 23.7621 708.134 22.4189 709.791 22.4189H753.693C755.35 22.4189 756.693 23.7621 756.693 25.4189V61.7268C756.693 63.3837 758.036 64.7268 759.693 64.7268H780.746C782.402 64.7268 783.746 66.07 783.746 67.7268V98.3937C783.746 100.051 782.402 101.394 780.746 101.394H759.693C758.036 101.394 756.693 102.737 756.693 104.394V146.009C756.693 150.454 757.656 153.616 759.582 155.496C761.508 157.206 764.135 158.061 767.462 158.061C769.913 158.061 772.714 157.633 775.866 156.779C777.941 156.216 780.016 155.579 782.092 154.868C783.81 154.279 785.687 155.277 786.098 157.047L793.676 189.684Z"/>
</mask>
<path d="M793.676 189.684C794.008 191.114 793.257 192.577 791.892 193.118C788.017 194.653 783.9 196.13 779.543 197.548C774.465 199.086 769.213 200.283 763.785 201.138C758.532 201.992 753.366 202.42 748.289 202.42C740.759 202.42 733.843 201.223 727.54 198.83C721.236 196.266 716.158 192.163 712.306 186.522C708.629 180.71 706.791 172.932 706.791 163.189V104.394C706.791 102.737 705.448 101.394 703.791 101.394H692.719C691.062 101.394 689.719 100.051 689.719 98.3937V67.7268C689.719 66.07 691.062 64.7268 692.719 64.7268H703.791C705.448 64.7268 706.791 63.3837 706.791 61.7268V25.4189C706.791 23.7621 708.134 22.4189 709.791 22.4189H753.693C755.35 22.4189 756.693 23.7621 756.693 25.4189V61.7268C756.693 63.3837 758.036 64.7268 759.693 64.7268H780.746C782.402 64.7268 783.746 66.07 783.746 67.7268V98.3937C783.746 100.051 782.402 101.394 780.746 101.394H759.693C758.036 101.394 756.693 102.737 756.693 104.394V146.009C756.693 150.454 757.656 153.616 759.582 155.496C761.508 157.206 764.135 158.061 767.462 158.061C769.913 158.061 772.714 157.633 775.866 156.779C777.941 156.216 780.016 155.579 782.092 154.868C783.81 154.279 785.687 155.277 786.098 157.047L793.676 189.684Z" fill="url(#paint0_linear_485_1273)"/>
<path d="M791.892 193.118C791.892 193.118 791.892 193.118 791.892 193.118C787.814 194.7 783.682 196.138 779.516 197.463C774.503 198.946 769.388 200.075 764.225 200.875C764.068 200.899 763.912 200.923 763.755 200.947C758.637 201.747 753.461 202.164 748.289 202.133C741.264 202.097 734.221 200.981 727.684 198.451C721.616 195.987 716.353 191.676 712.725 186.236L712.735 186.251C708.509 179.445 707.393 171.169 707.409 163.189C707.493 143.59 707.563 123.992 707.62 104.394C707.673 102.354 705.839 100.507 703.791 100.551C700.1 100.541 696.409 100.532 692.719 100.522C691.585 100.547 690.569 99.5202 690.601 98.3937C690.626 88.1714 690.646 77.9491 690.663 67.7268C690.638 66.6326 691.629 65.6482 692.719 65.6786C696.409 65.6842 700.1 65.6893 703.791 65.694C705.905 65.7463 707.812 63.8442 707.763 61.7268C707.777 49.6242 707.786 37.5216 707.789 25.4189C707.762 24.3539 708.726 23.391 709.791 23.4184C711.962 23.4188 714.134 23.4189 716.305 23.4189C728.768 23.4189 741.23 23.4133 753.693 23.4021C754.766 23.3732 755.74 24.3432 755.714 25.4189C755.727 37.5216 755.744 49.6242 755.767 61.7268C755.721 63.8193 757.606 65.6966 759.693 65.6436C766.711 65.6296 773.728 65.6138 780.746 65.5962C781.879 65.5632 782.913 66.5861 782.888 67.7268C782.915 77.9491 782.946 88.1714 782.98 98.3937C783.016 99.5826 781.944 100.668 780.746 100.644C773.728 100.669 766.711 100.695 759.693 100.723C757.736 100.683 755.988 102.448 756.041 104.394C756.098 118.266 756.162 132.137 756.232 146.009C756.283 149.387 756.689 153.176 759.297 155.788L759.312 155.801C761.55 157.792 764.612 158.45 767.462 158.422C770.356 158.399 773.194 157.84 775.948 157.081C778.047 156.499 780.126 155.846 782.181 155.128C783.666 154.561 785.528 155.523 785.86 157.102C786.548 159.988 787.237 162.874 787.926 165.761C789.831 173.738 791.738 181.714 793.647 189.69C794.001 191.051 793.223 192.608 791.892 193.118C791.892 193.118 791.892 193.118 791.892 193.118C793.229 192.628 794.045 191.07 793.704 189.677C791.904 181.676 790.101 173.675 788.296 165.675C787.643 162.78 786.99 159.886 786.336 156.991C785.967 155.126 783.783 153.954 782.002 154.608C779.95 155.297 777.876 155.922 775.784 156.476C773.056 157.195 770.259 157.709 767.462 157.699C764.707 157.696 761.868 157.026 759.853 155.192L759.867 155.205C757.575 152.887 757.157 149.295 757.154 146.009C757.224 132.137 757.288 118.266 757.345 104.394C757.321 103.143 758.454 102.027 759.693 102.065C766.711 102.093 773.728 102.119 780.746 102.143C782.743 102.197 784.553 100.401 784.511 98.3937C784.545 88.1714 784.576 77.9491 784.603 67.7268C784.656 65.6716 782.808 63.8127 780.746 63.8575C773.728 63.8399 766.711 63.8241 759.693 63.81C758.584 63.8348 757.588 62.8303 757.619 61.7268C757.642 49.6242 757.659 37.5216 757.672 25.4189C757.724 23.2987 755.816 21.387 753.693 21.4358C741.23 21.4246 728.768 21.4189 716.305 21.4189C714.134 21.4189 711.962 21.4191 709.791 21.4195C707.659 21.3692 705.741 23.2881 705.792 25.4189C705.795 37.5216 705.804 49.6242 705.818 61.7268C705.847 62.8055 704.873 63.7851 703.791 63.7597C700.1 63.7643 696.409 63.7695 692.719 63.7751C690.613 63.7277 688.722 65.6251 688.774 67.7268C688.791 77.9491 688.812 88.1714 688.836 98.3937C688.791 100.463 690.656 102.318 692.719 102.265C696.409 102.256 700.1 102.246 703.791 102.236C704.939 102.202 705.986 103.238 705.962 104.394C706.018 123.992 706.088 143.59 706.172 163.189C706.228 171.294 707.423 179.764 711.877 186.794L711.887 186.808C715.668 192.364 721.148 196.753 727.387 199.206C734.065 201.709 741.208 202.754 748.289 202.707C753.494 202.677 758.69 202.195 763.816 201.328C763.972 201.303 764.129 201.277 764.286 201.25C769.454 200.383 774.567 199.185 779.569 197.633C783.722 196.251 787.837 194.757 791.892 193.118Z" fill="#975102" mask="url(#path-2-inside-1_485_1273)"/>
</g>
<g filter="url(#filter2_dg_485_1273)">
<path d="M634.432 199.477C632.775 199.477 631.432 198.134 631.432 196.477V67.6048C631.432 65.9479 632.775 64.6048 634.432 64.6048H678.334C679.991 64.6048 681.334 65.9479 681.334 67.6048V196.477C681.334 198.134 679.991 199.477 678.334 199.477H634.432ZM634.432 53.3227C632.775 53.3227 631.432 51.9795 631.432 50.3227V15.2969C631.432 13.64 632.775 12.2969 634.432 12.2969H678.334C679.991 12.2969 681.334 13.64 681.334 15.2969V50.3227C681.334 51.9795 679.991 53.3227 678.334 53.3227H634.432Z" fill="url(#paint1_linear_485_1273)"/>
<path d="M634.432 65.6045H678.334C679.438 65.6045 680.334 66.5001 680.334 67.6045V196.478C680.334 197.582 679.438 198.478 678.334 198.478H634.432C633.327 198.478 632.432 197.582 632.432 196.478V67.6045C632.432 66.5001 633.327 65.6045 634.432 65.6045ZM634.432 13.2969H678.334C679.439 13.2969 680.334 14.1923 680.334 15.2969V50.3223C680.334 51.4268 679.439 52.3223 678.334 52.3223H634.432C633.327 52.3223 632.432 51.4268 632.432 50.3223V15.2969C632.432 14.1923 633.327 13.2969 634.432 13.2969Z" stroke="#975102" stroke-width="2" stroke-miterlimit="1.57213"/>
</g>
<g filter="url(#filter3_dg_485_1273)">
<path d="M558.962 202.041C548.632 202.041 539.702 200.075 532.173 196.144C527.958 193.847 524.237 190.988 521.01 187.566C518.897 185.326 514.313 186.71 514.313 189.789V196.477C514.313 198.134 512.97 199.477 511.313 199.477H473.977C472.32 199.477 470.977 198.134 470.977 196.477V15.2969C470.977 13.64 472.32 12.2969 473.977 12.2969H517.879C519.536 12.2969 520.879 13.64 520.879 15.2969V72.8858C520.879 75.9908 525.656 77.4302 527.853 75.2359C530.772 72.3208 534.138 69.8882 537.951 67.9381C545.305 64.0065 553.972 62.0407 563.953 62.0407C572.357 62.0407 580.149 63.8356 587.328 67.4253C594.507 70.8441 600.723 75.716 605.976 82.0408C611.404 88.3656 615.606 95.887 618.583 104.605C621.56 113.152 623.048 122.468 623.048 132.554C623.048 142.468 621.384 151.699 618.058 160.246C614.906 168.622 610.441 175.973 604.663 182.298C599.06 188.622 592.318 193.494 584.439 196.913C576.735 200.332 568.243 202.041 558.962 202.041ZM544.517 161.015C548.544 161.015 552.221 160.332 555.548 158.964C558.875 157.597 561.764 155.716 564.215 153.323C566.667 150.759 568.505 147.768 569.731 144.349C571.132 140.93 571.832 137.084 571.832 132.81C571.832 127.34 570.694 122.383 568.418 117.938C566.317 113.323 563.34 109.733 559.488 107.169C555.811 104.434 551.521 103.067 546.618 103.067C543.116 103.067 539.702 103.921 536.375 105.631C533.048 107.34 529.984 109.733 527.183 112.81C524.676 115.583 522.648 118.824 521.098 122.531C520.951 122.884 520.879 123.263 520.879 123.645V146.214C520.879 146.835 521.071 147.443 521.438 147.945C522.847 149.871 524.324 151.664 525.869 153.323C527.795 155.033 529.721 156.486 531.647 157.682C533.574 158.708 535.587 159.562 537.688 160.246C539.965 160.759 542.241 161.015 544.517 161.015Z" fill="url(#paint2_linear_485_1273)"/>
<path d="M473.977 13.2969H517.879C518.983 13.2969 519.879 14.1923 519.879 15.2969V72.8857C519.879 75.0284 521.524 76.4482 523.235 77C524.947 77.5519 527.12 77.3807 528.56 75.9434C531.402 73.1047 534.682 70.7325 538.406 68.8281L538.414 68.8242L538.423 68.8203C545.606 64.9802 554.105 63.041 563.953 63.041C572.21 63.0411 579.848 64.8024 586.881 68.3193L586.89 68.3242L586.898 68.3281C593.942 71.6825 600.044 76.4626 605.207 82.6797L605.212 82.6855L605.217 82.6924C610.554 88.911 614.697 96.3175 617.637 104.928L617.639 104.934C620.575 113.363 622.048 122.567 622.048 132.554C622.048 142.354 620.404 151.461 617.126 159.884L617.122 159.895C614.013 168.157 609.613 175.396 603.925 181.623L603.919 181.629L603.914 181.635C598.41 187.848 591.789 192.634 584.041 195.996L584.033 195.999C576.469 199.356 568.117 201.041 558.963 201.041C548.766 201.041 540.007 199.103 532.651 195.266C528.527 193.018 524.891 190.223 521.737 186.88C520.349 185.408 518.237 185.196 516.564 185.73C514.889 186.266 513.312 187.676 513.312 189.789V196.478C513.312 197.582 512.417 198.478 511.312 198.478H473.977C472.872 198.478 471.977 197.582 471.977 196.478V15.2969C471.977 14.2612 472.764 13.4099 473.772 13.3076L473.977 13.2969ZM546.618 102.066C542.947 102.066 539.376 102.964 535.918 104.741C532.474 106.511 529.316 108.981 526.443 112.137L526.44 112.14C523.853 115.003 521.766 118.342 520.176 122.146C519.975 122.627 519.879 123.138 519.879 123.646V146.214C519.879 147.04 520.134 147.856 520.631 148.535C522.062 150.491 523.564 152.315 525.138 154.005L525.17 154.039L525.205 154.071C527.168 155.813 529.14 157.301 531.12 158.531L531.148 158.549L531.178 158.564C533.156 159.618 535.223 160.496 537.379 161.197L537.423 161.212L537.469 161.222C539.815 161.75 542.165 162.016 544.517 162.016C548.659 162.016 552.468 161.311 555.929 159.889C559.368 158.475 562.367 156.526 564.914 154.039L564.938 154.015C567.479 151.357 569.384 148.258 570.656 144.728C572.113 141.171 572.832 137.194 572.832 132.811C572.832 127.205 571.666 122.096 569.317 117.503C567.151 112.753 564.069 109.023 560.062 106.351C556.205 103.489 551.71 102.066 546.618 102.066Z" stroke="#975102" stroke-width="2" stroke-miterlimit="1.57213"/>
</g>
<g filter="url(#filter4_dg_485_1273)">
<path d="M315.777 158.655C315.777 149.596 318.316 141.647 323.394 134.809C328.472 127.801 335.476 122.33 344.406 118.399C353.511 114.467 363.841 112.501 375.398 112.501C380.826 112.501 385.903 112.929 390.631 113.783C393.88 114.35 396.822 115.104 399.456 116.046C401.24 116.684 403.238 115.421 403.238 113.527V113.527C403.238 107.202 401.312 102.501 397.46 99.4243C393.783 96.3474 387.742 94.8089 379.337 94.8089C371.633 94.8089 364.367 96.091 357.538 98.6551C351.762 100.733 345.722 103.712 339.418 107.593C337.874 108.543 335.833 107.972 335.051 106.335L323.234 81.5826C322.577 80.2067 323.054 78.5529 324.365 77.7736C332.952 72.6676 341.909 68.8588 351.234 66.3473C361.565 63.4413 372.596 61.9883 384.328 61.9883C406.215 61.9883 423.111 66.8601 435.018 76.6037C447.1 86.1764 453.14 100.45 453.14 119.424V145.578C453.14 150.194 453.841 153.442 455.242 155.322C456.252 156.555 457.809 157.432 459.913 157.954C461.412 158.325 462.596 159.576 462.596 161.12V196.995C462.596 198.411 461.605 199.64 460.213 199.904C457.043 200.507 453.985 200.946 451.039 201.22C447.537 201.732 444.386 201.989 441.584 201.989C432.654 201.989 425.825 200.45 421.098 197.373C416.545 194.126 413.569 189.425 412.168 183.271V183.271C411.748 181.323 409.228 180.72 407.885 182.192C402.533 188.058 396.519 192.691 389.843 196.091C381.789 200.023 373.209 201.989 364.104 201.989C354.999 201.989 346.769 200.109 339.415 196.348C332.061 192.587 326.283 187.459 322.081 180.963C317.878 174.296 315.777 166.861 315.777 158.655ZM396.672 161.989C398.598 160.621 400.174 159.168 401.399 157.63C402.625 155.92 403.238 154.211 403.238 152.501V144.598C403.238 143.339 402.454 142.206 401.254 141.827C398.937 141.095 396.359 140.465 393.52 139.937C390.018 139.254 386.866 138.912 384.065 138.912C378.112 138.912 373.034 140.365 368.832 143.271C364.804 146.177 362.791 149.852 362.791 154.296C362.791 156.69 363.491 158.912 364.892 160.963C366.293 162.843 368.219 164.382 370.67 165.578C373.121 166.604 375.923 167.117 379.075 167.117C382.051 167.117 385.116 166.69 388.267 165.835C391.594 164.809 394.396 163.527 396.672 161.989Z" fill="url(#paint3_linear_485_1273)"/>
<path d="M384.327 62.9883C406.079 62.9883 422.719 67.8314 434.385 77.3779L434.396 77.3877C446.184 86.7271 452.141 100.678 452.141 119.425V145.578C452.141 150.233 452.835 153.764 454.439 155.919L454.453 155.938L454.468 155.956C455.657 157.407 457.434 158.37 459.673 158.925C460.819 159.209 461.596 160.126 461.596 161.12V196.995C461.595 197.945 460.934 198.749 460.026 198.922C456.884 199.519 453.858 199.953 450.946 200.224L450.921 200.227L450.895 200.23C447.429 200.738 444.326 200.989 441.584 200.989C432.753 200.989 426.152 199.464 421.656 196.543C417.342 193.456 414.494 188.986 413.143 183.049C412.531 180.256 408.993 179.494 407.146 181.518C401.874 187.296 395.96 191.851 389.404 195.192C381.489 199.056 373.059 200.989 364.104 200.989C355.141 200.989 347.07 199.138 339.871 195.457C332.888 191.886 327.375 187.071 323.31 181.011L322.921 180.42C318.828 173.922 316.777 166.676 316.777 158.655C316.777 149.796 319.256 142.059 324.197 135.405L324.204 135.396C329.165 128.548 336.019 123.183 344.808 119.313C353.767 115.446 363.958 113.501 375.397 113.501C380.773 113.501 385.791 113.925 390.453 114.768L390.459 114.769C393.662 115.327 396.547 116.068 399.119 116.987C401.478 117.831 404.238 116.192 404.238 113.527C404.238 106.992 402.237 101.961 398.083 98.6426C394.132 95.3478 387.804 93.8086 379.337 93.8086C371.524 93.8086 364.143 95.1085 357.199 97.7139C351.347 99.8188 345.245 102.831 338.895 106.741C337.842 107.389 336.472 106.988 335.954 105.904L324.136 81.1514C323.696 80.229 324.022 79.1403 324.876 78.6328C333.388 73.5718 342.26 69.7995 351.494 67.3125L351.505 67.3096C361.74 64.4306 372.679 62.9883 384.327 62.9883ZM384.064 137.912C377.943 137.912 372.658 139.409 368.263 142.448L368.255 142.454L368.246 142.46C363.994 145.528 361.791 149.489 361.791 154.296C361.791 156.898 362.557 159.317 364.066 161.527L364.077 161.544L364.09 161.561C365.6 163.588 367.66 165.222 370.231 166.478L370.258 166.49L370.284 166.501C372.878 167.586 375.814 168.117 379.074 168.117C382.147 168.117 385.3 167.675 388.529 166.8L388.546 166.796L388.562 166.79C391.959 165.743 394.855 164.423 397.231 162.817L397.251 162.804C399.238 161.393 400.887 159.878 402.182 158.253L402.197 158.233L402.212 158.213C403.531 156.373 404.238 154.464 404.238 152.502V144.598C404.238 142.929 403.196 141.391 401.555 140.873C399.193 140.127 396.574 139.488 393.702 138.954C390.157 138.262 386.942 137.912 384.064 137.912Z" stroke="#975102" stroke-width="2" stroke-miterlimit="1.57213"/>
</g>
<g filter="url(#filter5_dg_485_1273)">
<mask id="path-10-inside-2_485_1273" fill="white">
<path d="M307.394 196.477C307.394 198.134 306.051 199.477 304.394 199.477H260.492C258.835 199.477 257.492 198.134 257.492 196.477V123.579C257.492 116.913 255.916 112.126 252.764 109.22C249.787 106.143 246.023 104.605 241.47 104.605C239.369 104.605 236.743 105.374 233.591 106.913C230.614 108.451 227.725 110.673 224.924 113.579C222.25 116.353 220.135 119.593 218.577 123.3C218.429 123.653 218.358 124.032 218.358 124.415V196.477C218.358 198.134 217.014 199.477 215.358 199.477H171.455C169.798 199.477 168.455 198.134 168.455 196.477V15.2969C168.455 13.64 169.798 12.2969 171.455 12.2969H215.358C217.014 12.2969 218.358 13.64 218.358 15.2969V74.7006C218.358 77.6685 222.522 79.0507 224.632 76.9629C228.363 73.2697 232.663 70.2614 237.531 67.9382C245.585 64.0065 254.427 62.0407 264.058 62.0407C273.863 62.0407 281.655 63.6646 287.433 66.9125C293.211 69.9894 297.501 74.0066 300.303 78.9638C303.104 83.9211 304.943 89.2203 305.818 94.8613C306.869 100.502 307.394 105.802 307.394 110.759V196.477Z"/>
</mask>
<path d="M307.394 196.477C307.394 198.134 306.051 199.477 304.394 199.477H260.492C258.835 199.477 257.492 198.134 257.492 196.477V123.579C257.492 116.913 255.916 112.126 252.764 109.22C249.787 106.143 246.023 104.605 241.47 104.605C239.369 104.605 236.743 105.374 233.591 106.913C230.614 108.451 227.725 110.673 224.924 113.579C222.25 116.353 220.135 119.593 218.577 123.3C218.429 123.653 218.358 124.032 218.358 124.415V196.477C218.358 198.134 217.014 199.477 215.358 199.477H171.455C169.798 199.477 168.455 198.134 168.455 196.477V15.2969C168.455 13.64 169.798 12.2969 171.455 12.2969H215.358C217.014 12.2969 218.358 13.64 218.358 15.2969V74.7006C218.358 77.6685 222.522 79.0507 224.632 76.9629C228.363 73.2697 232.663 70.2614 237.531 67.9382C245.585 64.0065 254.427 62.0407 264.058 62.0407C273.863 62.0407 281.655 63.6646 287.433 66.9125C293.211 69.9894 297.501 74.0066 300.303 78.9638C303.104 83.9211 304.943 89.2203 305.818 94.8613C306.869 100.502 307.394 105.802 307.394 110.759V196.477Z" fill="url(#paint4_linear_485_1273)"/>
<path d="M304.394 199.477C304.394 199.477 304.394 199.477 304.394 199.477C290.762 199.411 277.131 199.347 263.499 199.287C262.497 199.283 261.494 199.278 260.492 199.274C259.001 199.303 257.672 197.955 257.715 196.477C257.82 172.178 257.914 147.879 257.998 123.579C257.988 118.433 257.21 112.648 253.142 108.81L253.165 108.832C250.205 105.643 245.773 103.95 241.47 104.007C238.508 104.049 235.839 105.159 233.318 106.353L233.305 106.359C229.965 108.074 227.035 110.462 224.452 113.125C221.679 115.976 219.484 119.378 217.943 123.034C217.757 123.474 217.667 123.948 217.666 124.415C217.601 148.436 217.546 172.456 217.502 196.477C217.527 197.619 216.494 198.644 215.358 198.613C200.723 198.586 186.089 198.564 171.455 198.545C170.354 198.571 169.363 197.574 169.393 196.477C169.434 162.524 169.455 128.571 169.455 94.6186C169.455 68.178 169.443 41.7374 169.417 15.2969C169.388 14.2127 170.368 13.2287 171.455 13.2546C186.089 13.2399 200.723 13.2214 215.358 13.199C216.474 13.1681 217.488 14.1763 217.463 15.2969C217.494 35.0981 217.533 54.8994 217.578 74.7006C217.676 78.5458 222.693 79.9798 225.166 77.5031C228.841 73.8406 233.154 70.8342 237.841 68.5884C245.944 64.5795 255.009 62.6906 264.058 62.6859C271.995 62.6932 280.199 63.591 287.153 67.4106L287.165 67.4169C292.36 70.1376 296.974 74.1023 299.857 79.2159C302.626 84.061 304.501 89.4108 305.371 94.9308L305.373 94.9442C306.363 100.16 306.979 105.455 307.001 110.759C307.064 127.271 307.131 143.783 307.204 160.295C307.257 172.356 307.313 184.416 307.371 196.477C307.418 198.062 305.993 199.508 304.394 199.477C304.394 199.477 304.394 199.477 304.394 199.477C305.991 199.524 307.448 198.088 307.417 196.477C307.475 184.416 307.531 172.356 307.584 160.295C307.657 143.783 307.725 127.271 307.787 110.759C307.806 105.395 307.223 100.045 306.263 94.7785L306.266 94.7919C305.421 89.1622 303.544 83.6799 300.749 78.7118C297.793 73.3808 293.02 69.2346 287.702 66.4081L287.713 66.4144C280.484 62.3912 272.111 61.455 264.058 61.3955C254.844 61.3455 245.541 63.2234 237.215 67.2906C232.386 69.573 227.911 72.6567 224.097 76.4228C222.6 78.0497 219.01 76.8795 219.137 74.7006C219.182 54.8994 219.221 35.0981 219.252 15.2969C219.304 13.2215 217.437 11.348 215.358 11.3947C200.723 11.3724 186.089 11.3538 171.455 11.3391C169.346 11.2874 167.444 13.1851 167.493 15.2969C167.468 41.7374 167.455 68.178 167.455 94.6186C167.455 128.571 167.476 162.524 167.517 196.477C167.469 198.576 169.36 200.461 171.455 200.409C186.089 200.391 200.723 200.368 215.358 200.342C217.417 200.388 219.266 198.532 219.214 196.477C219.169 172.456 219.114 148.436 219.049 124.415C219.048 124.12 219.102 123.829 219.212 123.567C220.674 120.044 222.755 116.782 225.395 114.034C227.89 111.432 230.704 109.12 233.877 107.466L233.864 107.473C236.292 106.297 238.879 105.246 241.47 105.203C245.532 105.135 249.568 106.652 252.363 109.608L252.386 109.631C256.087 113.044 256.955 118.54 256.986 123.579C257.069 147.879 257.163 172.178 257.268 196.477C257.234 198.195 258.786 199.729 260.492 199.68C261.494 199.676 262.497 199.672 263.499 199.667C277.131 199.607 290.762 199.544 304.394 199.477Z" fill="#975102" mask="url(#path-10-inside-2_485_1273)"/>
</g>
<g filter="url(#filter6_dg_485_1273)">
<path d="M95.9859 202.041C85.6552 202.041 76.7253 200.075 69.1962 196.144C64.9813 193.847 61.2603 190.988 58.0332 187.566C55.9204 185.326 51.3364 186.71 51.3364 189.789V196.477C51.3364 198.134 49.9932 199.477 48.3364 199.477H11C9.34315 199.477 8 198.134 8 196.477V15.2969C8 13.64 9.34315 12.2969 11 12.2969H54.9025C56.5593 12.2969 57.9025 13.64 57.9025 15.2969V72.8857C57.9025 75.9908 62.6794 77.4302 64.8763 75.2359C67.7951 72.3208 71.1611 69.8882 74.9744 67.9381C82.3284 64.0065 90.9957 62.0407 100.976 62.0407C109.381 62.0407 117.173 63.8356 124.352 67.4253C131.53 70.8441 137.746 75.716 142.999 82.0408C148.427 88.3656 152.63 95.887 155.606 104.605C158.583 113.152 160.071 122.468 160.071 132.554C160.071 142.468 158.408 151.699 155.081 160.246C151.929 168.622 147.464 175.973 141.686 182.298C136.083 188.622 129.342 193.494 121.462 196.913C113.758 200.332 105.266 202.041 95.9859 202.041ZM81.5405 161.015C85.5677 161.015 89.2447 160.332 92.5715 158.964C95.8984 157.597 98.7875 155.716 101.239 153.323C103.69 150.759 105.529 147.768 106.754 144.349C108.155 140.93 108.856 137.084 108.856 132.81C108.856 127.34 107.717 122.383 105.441 117.938C103.34 113.323 100.363 109.733 96.5112 107.169C92.8342 104.434 88.5443 103.067 83.6416 103.067C80.1397 103.067 76.7253 103.921 73.3985 105.631C70.0717 107.34 67.0075 109.733 64.2059 112.81C61.6995 115.583 59.6715 118.824 58.1218 122.531C57.9744 122.884 57.9025 123.263 57.9025 123.645V146.214C57.9025 146.835 58.0939 147.443 58.4611 147.945C59.8701 149.871 61.3473 151.664 62.8927 153.323C64.8188 155.033 66.7448 156.486 68.6709 157.682C70.597 158.708 72.6106 159.562 74.7117 160.246C76.988 160.759 79.2642 161.015 81.5405 161.015Z" fill="url(#paint5_linear_485_1273)"/>
<path d="M11 13.2969H54.9023C56.0069 13.2969 56.9023 14.1923 56.9023 15.2969V72.8857C56.9023 75.0284 58.5478 76.4482 60.2588 77C61.9703 77.5519 64.1439 77.3807 65.583 75.9434C68.4252 73.1047 71.7057 70.7325 75.4297 68.8281L75.4375 68.8242L75.4463 68.8203C82.6293 64.9802 91.1284 63.041 100.977 63.041C109.233 63.0411 116.871 64.8024 123.904 68.3193L123.913 68.3242L123.922 68.3281C130.965 71.6825 137.067 76.4626 142.23 82.6797L142.235 82.6855L142.24 82.6924C147.577 88.911 151.72 96.3175 154.66 104.928L154.662 104.934C157.598 113.363 159.071 122.568 159.071 132.554C159.071 142.354 157.428 151.461 154.149 159.884L154.146 159.895C151.037 168.157 146.637 175.396 140.948 181.623L140.942 181.629L140.938 181.635C135.433 187.848 128.812 192.634 121.064 195.996L121.057 195.999C113.493 199.356 105.141 201.041 95.9863 201.041C85.7896 201.041 77.0301 199.103 69.6748 195.266C65.5506 193.018 61.914 190.223 58.7607 186.88C57.3727 185.408 55.2602 185.196 53.5879 185.73C51.9122 186.266 50.3359 187.676 50.3359 189.789V196.478C50.3357 197.582 49.4404 198.478 48.3359 198.478H11C9.89555 198.478 9.00019 197.582 9 196.478V15.2969C9 14.1923 9.89543 13.2969 11 13.2969ZM83.6416 102.066C79.97 102.066 76.3997 102.964 72.9414 104.741C69.4971 106.511 66.3397 108.981 63.4668 112.137L63.4639 112.14C60.8761 115.003 58.7893 118.342 57.1992 122.146C56.998 122.627 56.9023 123.138 56.9023 123.646V146.214C56.9024 147.04 57.1574 147.856 57.6543 148.535C59.0854 150.491 60.5875 152.315 62.1611 154.005L62.1934 154.039L62.2285 154.071C64.1914 155.813 66.1634 157.301 68.1436 158.531L68.1719 158.549L68.2012 158.564C70.1793 159.618 72.2465 160.496 74.4023 161.197L74.4463 161.212L74.4922 161.222C76.8385 161.75 79.1882 162.016 81.54 162.016C85.6821 162.016 89.4911 161.311 92.9521 159.889C96.3913 158.475 99.39 156.526 101.938 154.039L101.962 154.015C104.502 151.357 106.408 148.258 107.68 144.728C109.137 141.171 109.855 137.194 109.855 132.811C109.855 127.206 108.689 122.096 106.341 117.503C104.174 112.753 101.092 109.023 97.0859 106.351C93.2289 103.489 88.7337 102.066 83.6416 102.066Z" stroke="#975102" stroke-width="2" stroke-miterlimit="1.57213"/>
</g>
</g>
<defs>
<filter id="filter0_n_485_1273" x="8" y="12" width="785.754" height="190.42" filterUnits="userSpaceOnUse" color-interpolation-filters="sRGB">
<feFlood flood-opacity="0" result="BackgroundImageFix"/>
<feBlend mode="normal" in="SourceGraphic" in2="BackgroundImageFix" result="shape"/>
<feTurbulence type="fractalNoise" baseFrequency="0.05128205195069313 0.05128205195069313" stitchTiles="stitch" numOctaves="3" result="noise" seed="5130" />
<feColorMatrix in="noise" type="luminanceToAlpha" result="alphaNoise" />
<feComponentTransfer in="alphaNoise" result="coloredNoise1">
<feFuncA type="discrete" tableValues="0 0 0 0 0 0 0 0 0 0 0 0 0 0 0 0 0 0 0 0 1 1 1 1 1 1 1 1 1 1 0 0 0 0 0 0 0 0 0 0 0 0 0 0 0 0 0 0 0 0 0 0 0 0 0 0 0 0 0 0 0 0 0 0 0 0 0 0 0 0 0 0 0 0 0 0 0 0 0 0 0 0 0 0 0 0 0 0 0 0 0 0 0 0 0 0 0 0 0 0 "/>
</feComponentTransfer>
<feComposite operator="in" in2="shape" in="coloredNoise1" result="noise1Clipped" />
<feComponentTransfer in="alphaNoise" result="coloredNoise2">
<feFuncA type="discrete" tableValues="0 0 0 0 0 0 0 0 0 0 0 0 0 0 0 0 0 0 0 0 0 0 0 0 0 0 0 0 0 0 0 0 0 0 0 0 0 0 0 0 0 0 0 0 0 0 0 0 0 0 0 0 0 0 0 0 0 0 0 0 0 0 0 0 0 0 0 0 0 0 1 1 1 1 1 1 1 1 1 1 0 0 0 0 0 0 0 0 0 0 0 0 0 0 0 0 0 0 0 0 "/>
</feComponentTransfer>
<feComposite operator="in" in2="shape" in="coloredNoise2" result="noise2Clipped" />
<feFlood flood-color="rgba(129, 9, 150, 0.86)" result="color1Flood" />
<feComposite operator="in" in2="noise1Clipped" in="color1Flood" result="color1" />
<feFlood flood-color="#C71585" result="color2Flood" />
<feComposite operator="in" in2="noise2Clipped" in="color2Flood" result="color2" />
<feMerge result="effect1_noise_485_1273">
<feMergeNode in="shape" />
<feMergeNode in="color1" />
<feMergeNode in="color2" />
</feMerge>
</filter>
<filter id="filter1_dg_485_1273" x="681.719" y="10.4189" width="136.035" height="212.001" filterUnits="userSpaceOnUse" color-interpolation-filters="sRGB">
<feFlood flood-opacity="0" result="BackgroundImageFix"/>
<feColorMatrix in="SourceAlpha" type="matrix" values="0 0 0 0 0 0 0 0 0 0 0 0 0 0 0 0 0 0 127 0" result="hardAlpha"/>
<feMorphology radius="16" operator="dilate" in="SourceAlpha" result="effect1_dropShadow_485_1273"/>
<feOffset dx="8" dy="4"/>
<feComposite in2="hardAlpha" operator="out"/>
<feColorMatrix type="matrix" values="0 0 0 0 0.592157 0 0 0 0 0.0862745 0 0 0 0 0.568627 0 0 0 1 0"/>
<feBlend mode="normal" in2="BackgroundImageFix" result="effect1_dropShadow_485_1273"/>
<feBlend mode="normal" in="SourceGraphic" in2="effect1_dropShadow_485_1273" result="shape"/>
<feTurbulence type="fractalNoise" baseFrequency="inf inf" numOctaves="3" seed="6103" />
<feDisplacementMap in="shape" scale="14" xChannelSelector="R" yChannelSelector="G" result="displacedImage" width="100%" height="100%" />
<feMerge result="effect2_texture_485_1273">
<feMergeNode in="displacedImage"/>
</feMerge>
</filter>
<filter id="filter2_dg_485_1273" x="623.432" y="0.296875" width="81.9023" height="219.181" filterUnits="userSpaceOnUse" color-interpolation-filters="sRGB">
<feFlood flood-opacity="0" result="BackgroundImageFix"/>
<feColorMatrix in="SourceAlpha" type="matrix" values="0 0 0 0 0 0 0 0 0 0 0 0 0 0 0 0 0 0 127 0" result="hardAlpha"/>
<feMorphology radius="16" operator="dilate" in="SourceAlpha" result="effect1_dropShadow_485_1273"/>
<feOffset dx="8" dy="4"/>
<feComposite in2="hardAlpha" operator="out"/>
<feColorMatrix type="matrix" values="0 0 0 0 0.592157 0 0 0 0 0.0862745 0 0 0 0 0.568627 0 0 0 1 0"/>
<feBlend mode="normal" in2="BackgroundImageFix" result="effect1_dropShadow_485_1273"/>
<feBlend mode="normal" in="SourceGraphic" in2="effect1_dropShadow_485_1273" result="shape"/>
<feTurbulence type="fractalNoise" baseFrequency="inf inf" numOctaves="3" seed="6103" />
<feDisplacementMap in="shape" scale="14" xChannelSelector="R" yChannelSelector="G" result="displacedImage" width="100%" height="100%" />
<feMerge result="effect2_texture_485_1273">
<feMergeNode in="displacedImage"/>
</feMerge>
</filter>
<filter id="filter3_dg_485_1273" x="462.977" y="0.296875" width="184.07" height="221.744" filterUnits="userSpaceOnUse" color-interpolation-filters="sRGB">
<feFlood flood-opacity="0" result="BackgroundImageFix"/>
<feColorMatrix in="SourceAlpha" type="matrix" values="0 0 0 0 0 0 0 0 0 0 0 0 0 0 0 0 0 0 127 0" result="hardAlpha"/>
<feMorphology radius="16" operator="dilate" in="SourceAlpha" result="effect1_dropShadow_485_1273"/>
<feOffset dx="8" dy="4"/>
<feComposite in2="hardAlpha" operator="out"/>
<feColorMatrix type="matrix" values="0 0 0 0 0.592157 0 0 0 0 0.0862745 0 0 0 0 0.568627 0 0 0 1 0"/>
<feBlend mode="normal" in2="BackgroundImageFix" result="effect1_dropShadow_485_1273"/>
<feBlend mode="normal" in="SourceGraphic" in2="effect1_dropShadow_485_1273" result="shape"/>
<feTurbulence type="fractalNoise" baseFrequency="inf inf" numOctaves="3" seed="6103" />
<feDisplacementMap in="shape" scale="14" xChannelSelector="R" yChannelSelector="G" result="displacedImage" width="100%" height="100%" />
<feMerge result="effect2_texture_485_1273">
<feMergeNode in="displacedImage"/>
</feMerge>
</filter>
<filter id="filter4_dg_485_1273" x="307.777" y="49.9883" width="178.818" height="172.001" filterUnits="userSpaceOnUse" color-interpolation-filters="sRGB">
<feFlood flood-opacity="0" result="BackgroundImageFix"/>
<feColorMatrix in="SourceAlpha" type="matrix" values="0 0 0 0 0 0 0 0 0 0 0 0 0 0 0 0 0 0 127 0" result="hardAlpha"/>
<feMorphology radius="16" operator="dilate" in="SourceAlpha" result="effect1_dropShadow_485_1273"/>
<feOffset dx="8" dy="4"/>
<feComposite in2="hardAlpha" operator="out"/>
<feColorMatrix type="matrix" values="0 0 0 0 0.592157 0 0 0 0 0.0862745 0 0 0 0 0.568627 0 0 0 1 0"/>
<feBlend mode="normal" in2="BackgroundImageFix" result="effect1_dropShadow_485_1273"/>
<feBlend mode="normal" in="SourceGraphic" in2="effect1_dropShadow_485_1273" result="shape"/>
<feTurbulence type="fractalNoise" baseFrequency="inf inf" numOctaves="3" seed="6103" />
<feDisplacementMap in="shape" scale="14" xChannelSelector="R" yChannelSelector="G" result="displacedImage" width="100%" height="100%" />
<feMerge result="effect2_texture_485_1273">
<feMergeNode in="displacedImage"/>
</feMerge>
</filter>
<filter id="filter5_dg_485_1273" x="160.455" y="0.296875" width="170.939" height="219.181" filterUnits="userSpaceOnUse" color-interpolation-filters="sRGB">
<feFlood flood-opacity="0" result="BackgroundImageFix"/>
<feColorMatrix in="SourceAlpha" type="matrix" values="0 0 0 0 0 0 0 0 0 0 0 0 0 0 0 0 0 0 127 0" result="hardAlpha"/>
<feMorphology radius="16" operator="dilate" in="SourceAlpha" result="effect1_dropShadow_485_1273"/>
<feOffset dx="8" dy="4"/>
<feComposite in2="hardAlpha" operator="out"/>
<feColorMatrix type="matrix" values="0 0 0 0 0.592157 0 0 0 0 0.0862745 0 0 0 0 0.568627 0 0 0 1 0"/>
<feBlend mode="normal" in2="BackgroundImageFix" result="effect1_dropShadow_485_1273"/>
<feBlend mode="normal" in="SourceGraphic" in2="effect1_dropShadow_485_1273" result="shape"/>
<feTurbulence type="fractalNoise" baseFrequency="inf inf" numOctaves="3" seed="6103" />
<feDisplacementMap in="shape" scale="14" xChannelSelector="R" yChannelSelector="G" result="displacedImage" width="100%" height="100%" />
<feMerge result="effect2_texture_485_1273">
<feMergeNode in="displacedImage"/>
</feMerge>
</filter>
<filter id="filter6_dg_485_1273" x="0" y="0.296875" width="184.07" height="221.744" filterUnits="userSpaceOnUse" color-interpolation-filters="sRGB">
<feFlood flood-opacity="0" result="BackgroundImageFix"/>
<feColorMatrix in="SourceAlpha" type="matrix" values="0 0 0 0 0 0 0 0 0 0 0 0 0 0 0 0 0 0 127 0" result="hardAlpha"/>
<feMorphology radius="16" operator="dilate" in="SourceAlpha" result="effect1_dropShadow_485_1273"/>
<feOffset dx="8" dy="4"/>
<feComposite in2="hardAlpha" operator="out"/>
<feColorMatrix type="matrix" values="0 0 0 0 0.592157 0 0 0 0 0.0862745 0 0 0 0 0.568627 0 0 0 1 0"/>
<feBlend mode="normal" in2="BackgroundImageFix" result="effect1_dropShadow_485_1273"/>
<feBlend mode="normal" in="SourceGraphic" in2="effect1_dropShadow_485_1273" result="shape"/>
<feTurbulence type="fractalNoise" baseFrequency="inf inf" numOctaves="3" seed="6103" />
<feDisplacementMap in="shape" scale="14" xChannelSelector="R" yChannelSelector="G" result="displacedImage" width="100%" height="100%" />
<feMerge result="effect2_texture_485_1273">
<feMergeNode in="displacedImage"/>
</feMerge>
</filter>
<linearGradient id="paint0_linear_485_1273" x1="741.985" y1="22.4189" x2="741.985" y2="202.42" gradientUnits="userSpaceOnUse">
<stop stop-color="#FB923C"/>
<stop offset="1" stop-color="#E36600"/>
</linearGradient>
<linearGradient id="paint1_linear_485_1273" x1="656.383" y1="12.2969" x2="656.383" y2="199.477" gradientUnits="userSpaceOnUse">
<stop stop-color="#FB923C"/>
<stop offset="1" stop-color="#E36600"/>
</linearGradient>
<linearGradient id="paint2_linear_485_1273" x1="547.012" y1="12.2969" x2="547.012" y2="202.041" gradientUnits="userSpaceOnUse">
<stop stop-color="#FB923C"/>
<stop offset="1" stop-color="#E36600"/>
</linearGradient>
<linearGradient id="paint3_linear_485_1273" x1="389.186" y1="61.9883" x2="389.186" y2="201.989" gradientUnits="userSpaceOnUse">
<stop stop-color="#FB923C"/>
<stop offset="1" stop-color="#E36600"/>
</linearGradient>
<linearGradient id="paint4_linear_485_1273" x1="237.925" y1="12.2969" x2="237.925" y2="199.477" gradientUnits="userSpaceOnUse">
<stop stop-color="#FB923C"/>
<stop offset="1" stop-color="#E36600"/>
</linearGradient>
<linearGradient id="paint5_linear_485_1273" x1="84.0356" y1="12.2969" x2="84.0356" y2="202.041" gradientUnits="userSpaceOnUse">
<stop stop-color="#FB923C"/>
<stop offset="1" stop-color="#E36600"/>
</linearGradient>
</defs>
</svg>
